<?xml version="1.0" standalone="no"?>
<!DOCTYPE svg PUBLIC "-//W3C//DTD SVG 20010904//EN"
 "http://www.w3.org/TR/2001/REC-SVG-20010904/DTD/svg10.dtd">
<svg version="1.0" xmlns="http://www.w3.org/2000/svg"
 width="355.000000pt" height="355.000000pt" viewBox="0 0 355.000000 355.000000"
 preserveAspectRatio="xMidYMid meet">
<metadata>
Created by potrace 1.14, written by Peter Selinger 2001-2017
</metadata>
<g transform="translate(0.000000,355.000000) scale(0.100000,-0.100000)"
fill="#000000" stroke="none">
<path d="M1240 3449 c-408 -159 -560 -219 -632 -246 -57 -21 -68 -29 -68 -49
0 -19 13 -30 67 -57 84 -43 239 -135 276 -163 61 -48 57 41 57 -1374 l0 -1295
-23 -40 c-40 -71 -150 -119 -332 -143 -49 -7 -50 -8 -53 -45 l-3 -37 823 2
c777 3 823 4 822 21 -1 9 -2 25 -3 36 -1 16 -12 20 -78 25 -261 22 -280 24
-343 42 -84 23 -153 60 -178 97 l-22 33 0 1063 0 1063 36 82 c106 239 172 345
283 455 100 98 167 131 265 128 81 -3 138 -26 201 -83 22 -20 54 -48 71 -64
88 -79 167 -111 275 -112 63 0 85 5 129 27 92 47 169 147 187 242 11 58 8 173
-5 219 -29 101 -153 216 -271 251 -76 23 -244 23 -331 0 -140 -37 -246 -105
-390 -247 -154 -153 -277 -350 -421 -672 -19 -43 -38 -77 -42 -78 -9 0 1 999
10 1012 15 25 -82 -4 -307 -93z"/>
</g>
</svg>
