<?xml version="1.0" standalone="no"?>
<!DOCTYPE svg PUBLIC "-//W3C//DTD SVG 20010904//EN"
 "http://www.w3.org/TR/2001/REC-SVG-20010904/DTD/svg10.dtd">
<svg version="1.0" xmlns="http://www.w3.org/2000/svg"
 width="512.000000pt" height="512.000000pt" viewBox="0 0 512.000000 512.000000"
 preserveAspectRatio="xMidYMid meet">
<metadata>
Created by potrace 1.14, written by Peter Selinger 2001-2017
</metadata>
<g transform="translate(0.000000,512.000000) scale(0.100000,-0.100000)"
fill="#000000" stroke="none">
<path d="M4210 5081 c-239 -80 -430 -189 -562 -321 l-77 -77 -128 43 c-279 93
-523 129 -833 121 -384 -10 -677 -81 -1015 -247 -624 -307 -1107 -900 -1274
-1566 -192 -763 -25 -1530 466 -2139 151 -187 390 -401 584 -520 97 -60 143
-58 168 8 17 44 -2 73 -81 123 -486 311 -839 795 -982 1344 -56 214 -70 335
-70 575 0 239 14 359 69 573 137 535 475 1004 953 1325 197 132 513 266 747
317 315 68 697 68 993 0 110 -26 312 -90 312 -99 0 -4 -12 -41 -26 -82 -35
-98 -43 -253 -20 -353 19 -81 64 -170 117 -230 l37 -42 -40 -38 c-46 -44 -73
-99 -84 -171 -4 -27 -17 -73 -30 -102 -35 -78 -62 -192 -74 -307 -28 -275 60
-557 242 -778 l38 -46 -5 -294 c-8 -407 -5 -390 -65 -428 -71 -45 -138 -122
-173 -198 -25 -55 -31 -83 -35 -160 -3 -57 0 -111 8 -140 29 -106 102 -210
191 -269 l39 -26 0 -263 0 -262 -105 -41 c-263 -103 -528 -152 -825 -152 -282
0 -527 42 -771 132 -59 21 -116 39 -128 39 -27 0 -71 -43 -71 -69 0 -65 60
-100 289 -166 238 -68 430 -95 688 -95 312 0 632 61 901 172 40 17 74 29 75
27 60 -93 95 -127 177 -170 39 -21 59 -24 145 -24 90 0 105 3 153 28 78 41
138 106 180 195 l37 77 4 179 3 180 98 108 c171 188 327 415 382 554 56 144
60 293 13 443 -35 108 -88 192 -177 276 -84 81 -197 143 -300 166 l-58 12 0
144 c0 159 -10 198 -55 209 -24 6 -25 8 -25 100 0 90 1 95 24 106 45 20 49 47
41 315 l-8 248 34 12 c94 34 163 140 162 249 -1 76 -26 133 -82 188 l-40 39
44 51 c89 105 133 248 122 396 -6 72 -53 261 -99 400 -30 89 -28 150 7 230 15
36 30 84 32 107 4 37 1 46 -25 73 -41 41 -87 39 -232 -9z m-78 -268 c-3 -57 2
-89 37 -203 83 -278 97 -383 66 -503 -20 -78 -45 -124 -100 -185 l-47 -52
-129 0 c-112 0 -135 3 -171 21 -67 34 -142 113 -174 182 -27 57 -29 71 -28
177 0 95 4 125 22 171 48 121 141 234 264 322 62 44 233 136 253 137 7 0 9
-25 7 -67z m-520 -1445 l48 -23 -6 -345 c-4 -190 -8 -347 -10 -348 -5 -7 -73
146 -93 211 -28 94 -44 228 -36 317 7 81 33 210 42 210 4 0 28 -10 55 -22z
m771 -1327 c250 -86 391 -369 313 -626 -29 -95 -187 -337 -319 -489 l-34 -38
-6 323 c-4 178 -10 442 -14 587 -3 144 -4 262 -1 262 3 0 30 -9 61 -19z m-768
-756 c-7 -210 -8 -215 -26 -199 -60 54 -89 189 -61 284 13 45 79 146 89 136 3
-3 2 -102 -2 -221z"/>
<path d="M2605 4490 c-327 -50 -494 -422 -315 -700 95 -149 280 -231 453 -202
261 44 430 288 376 544 -49 233 -279 394 -514 358z"/>
<path d="M1395 4002 c-197 -68 -317 -234 -317 -437 0 -347 357 -560 671 -400
161 81 262 282 234 466 -36 230 -222 390 -455 389 -52 -1 -102 -7 -133 -18z"/>
<path d="M940 2866 c-172 -48 -299 -188 -331 -366 -46 -260 152 -513 413 -528
139 -8 258 34 352 123 213 205 178 558 -73 717 -98 62 -250 85 -361 54z"/>
<path d="M1411 1724 c-80 -21 -145 -60 -206 -125 -152 -159 -172 -390 -49
-575 46 -69 101 -114 189 -156 133 -62 308 -49 433 32 226 146 277 448 112
666 -104 138 -306 205 -479 158z"/>
<path d="M2581 1259 c-65 -13 -160 -61 -212 -107 -174 -155 -202 -423 -65
-610 102 -139 274 -209 439 -182 265 45 439 308 372 565 -61 233 -297 381
-534 334z"/>
</g>
</svg>
