<?xml version="1.0" encoding="UTF-8" standalone="no"?>
<!DOCTYPE svg PUBLIC "-//W3C//DTD SVG 1.1//EN" "http://www.w3.org/Graphics/SVG/1.1/DTD/svg11.dtd">
<svg width="100%" height="100%" viewBox="0 0 3300 2550" version="1.1" xmlns="http://www.w3.org/2000/svg" xmlns:xlink="http://www.w3.org/1999/xlink" xml:space="preserve" xmlns:serif="http://www.serif.com/" style="fill-rule:evenodd;clip-rule:evenodd;stroke-linejoin:round;stroke-miterlimit:2;">
    <g transform="matrix(13.6224,0,0,13.6224,-324.757,-497.728)">
        <path d="M144.751,112.705C144.744,109.514 143.754,106.299 141.974,103.829C138.401,98.873 132.727,98.747 127.752,96.073C125.313,94.762 122.344,92.195 121.171,89.616C120.681,90.808 120.135,93.532 119.94,94.433C118.603,100.601 119.171,107.509 123.347,112.535C126.396,116.206 130.893,118.153 135.293,119.683C137.739,120.533 139.234,121.336 139.725,124.044C140.843,122.83 141.771,121.453 142.649,120.135C144.092,117.964 144.757,115.343 144.751,112.705Z" style="fill:rgb(172,190,129);"/>
    </g>
    <g transform="matrix(13.6224,0,0,13.6224,-324.757,-497.728)">
        <path d="M137.945,125.766C137.939,125.771 138.014,125.669 138.085,125.544C138.166,125.423 138.283,125.204 138.432,124.917C138.566,124.625 138.748,124.273 138.896,123.843C139.065,123.419 139.211,122.926 139.346,122.377C139.432,122.107 139.459,121.813 139.514,121.513C139.56,121.212 139.634,120.902 139.637,120.577C139.656,120.251 139.676,119.917 139.696,119.576C139.691,119.234 139.66,118.885 139.644,118.528L139.613,117.988L139.515,117.447C139.448,117.083 139.381,116.714 139.313,116.342C139.199,115.98 139.083,115.616 138.967,115.25C138.857,114.88 138.742,114.509 138.56,114.164C138.224,113.464 137.944,112.728 137.498,112.094C137.083,111.443 136.717,110.768 136.224,110.212C135.75,109.643 135.339,109.047 134.863,108.559C134.382,108.073 133.928,107.613 133.508,107.189C133.102,106.747 132.672,106.406 132.297,106.096C131.923,105.784 131.597,105.512 131.328,105.289C130.789,104.84 130.481,104.583 130.481,104.583C130.481,104.583 130.807,104.816 131.377,105.223C131.663,105.427 132.01,105.674 132.408,105.958C132.808,106.242 133.266,106.553 133.707,106.966C134.163,107.364 134.657,107.794 135.179,108.249C135.7,108.708 136.163,109.281 136.691,109.829C137.239,110.363 137.669,111.027 138.15,111.672C138.662,112.299 139.016,113.044 139.425,113.76C139.643,114.112 139.796,114.496 139.944,114.881C140.098,115.266 140.25,115.648 140.401,116.028C140.505,116.425 140.609,116.819 140.711,117.208L140.861,117.792L140.941,118.381C140.989,118.771 141.05,119.155 141.083,119.534C141.089,119.915 141.095,120.287 141.101,120.649C141.122,121.014 141.069,121.365 141.043,121.707C141.007,122.047 140.998,122.381 140.926,122.692C140.821,123.321 140.695,123.893 140.54,124.391C140.405,124.895 140.229,125.318 140.096,125.672C139.947,126.02 139.825,126.296 139.714,126.498C139.618,126.678 139.566,126.774 139.566,126.774L137.945,125.766Z" style="fill:rgb(245,242,237);fill-rule:nonzero;"/>
    </g>
    <g transform="matrix(13.6224,0,0,13.6224,-324.757,-497.728)">
        <path d="M147.99,114.193C147.99,114.193 139.634,95.476 162.173,89.616C175.492,86.154 176.48,80.218 176.48,80.218C176.48,80.218 183.406,123.635 147.99,114.193Z" style="fill:rgb(172,190,129);"/>
    </g>
    <g transform="matrix(13.6224,0,0,13.6224,-330.748,-509.307)">
        <path d="M169.16,94.266C169.16,94.266 169.119,94.404 168.974,94.634C168.891,94.741 168.79,94.873 168.67,95.029C168.533,95.169 168.375,95.33 168.197,95.51C167.813,95.833 167.357,96.254 166.765,96.634C166.195,97.048 165.517,97.461 164.764,97.889C164.027,98.351 163.171,98.731 162.294,99.198C161.425,99.647 160.475,100.111 159.579,100.666C157.757,101.765 155.926,103.141 154.311,104.719C153.504,105.507 152.745,106.342 152.078,107.22C151.72,107.641 151.435,108.107 151.135,108.554C150.82,108.991 150.575,109.46 150.333,109.92C150.21,110.148 150.089,110.375 149.97,110.6C149.874,110.834 149.778,111.067 149.685,111.297C149.493,111.755 149.3,112.2 149.195,112.659C149.083,113.114 148.908,113.542 148.857,113.979C148.792,114.412 148.728,114.83 148.667,115.232C148.628,115.635 148.646,116.025 148.631,116.392C148.62,116.76 148.607,117.108 148.667,117.434C148.769,118.083 148.76,118.659 148.915,119.111C149.152,120.021 149.287,120.542 149.287,120.542L147.459,121.094C147.459,121.094 147.335,120.495 147.119,119.447C146.978,118.93 147.007,118.265 146.936,117.526C146.893,117.156 146.924,116.759 146.957,116.342C146.993,115.926 147.001,115.486 147.068,115.035C147.159,114.588 147.255,114.123 147.354,113.642C147.44,113.158 147.651,112.692 147.803,112.197C147.949,111.697 148.183,111.22 148.417,110.732C148.533,110.488 148.65,110.241 148.768,109.992C148.909,109.756 149.052,109.519 149.196,109.279C149.482,108.798 149.772,108.311 150.129,107.863C150.472,107.405 150.801,106.929 151.199,106.506C151.948,105.619 152.785,104.791 153.663,104.018C155.421,102.471 157.361,101.167 159.285,100.138C160.252,99.609 161.2,99.207 162.108,98.796C162.998,98.38 163.873,98.044 164.622,97.626C165.39,97.241 166.083,96.868 166.667,96.487C167.275,96.141 167.744,95.75 168.142,95.448C168.327,95.279 168.492,95.128 168.636,94.998C168.762,94.85 168.869,94.724 168.956,94.622C169.111,94.403 169.16,94.266 169.16,94.266Z" style="fill:rgb(245,242,237);fill-rule:nonzero;"/>
    </g>
    <g transform="matrix(1.39204,0,0,1.14472,-1003.96,-1073.87)">
        <g transform="matrix(425,0,0,425,2601.97,2248)">
        </g>
        <text x="1178.39px" y="2248px" style="font-family:'Satisfy-Regular', 'Satisfy';font-size:425px;fill:white;">Cultivate</text>
    </g>
    <g transform="matrix(1,0,0,1,-471.522,-63.8663)">
        <g transform="matrix(150,0,0,150,3032.9,1760)">
        </g>
        <text x="1553px" y="1760px" style="font-family:'HelveticaNeue-Thin', 'Helvetica Neue', sans-serif;font-weight:200;font-size:150px;fill:white;">l<tspan x="1590.2px 1682.75px 1772.6px 1859.6px 1896.8px 1950.5px 1998.65px 2091.2px 2183.75px 2279.15px 2332.85px 2464.25px 2551.25px 2604.95px 2684.6px 2774.45px 2825.3px 2862.5px 2952.35px " y="1760px 1760px 1760px 1760px 1760px 1760px 1760px 1760px 1760px 1760px 1760px 1760px 1760px 1760px 1760px 1760px 1760px 1760px 1760px ">ocal food marketing</tspan></text>
    </g>
</svg>
